%TF.GenerationSoftware,KiCad,Pcbnew,7.0.2*%
%TF.CreationDate,2023-10-29T18:34:14+01:00*%
%TF.ProjectId,0xcb-static-hs,30786362-2d73-4746-9174-69632d68732e,1.0*%
%TF.SameCoordinates,Original*%
%TF.FileFunction,Paste,Bot*%
%TF.FilePolarity,Positive*%
%FSLAX46Y46*%
G04 Gerber Fmt 4.6, Leading zero omitted, Abs format (unit mm)*
G04 Created by KiCad (PCBNEW 7.0.2) date 2023-10-29 18:34:14*
%MOMM*%
%LPD*%
G01*
G04 APERTURE LIST*
G04 Aperture macros list*
%AMRoundRect*
0 Rectangle with rounded corners*
0 $1 Rounding radius*
0 $2 $3 $4 $5 $6 $7 $8 $9 X,Y pos of 4 corners*
0 Add a 4 corners polygon primitive as box body*
4,1,4,$2,$3,$4,$5,$6,$7,$8,$9,$2,$3,0*
0 Add four circle primitives for the rounded corners*
1,1,$1+$1,$2,$3*
1,1,$1+$1,$4,$5*
1,1,$1+$1,$6,$7*
1,1,$1+$1,$8,$9*
0 Add four rect primitives between the rounded corners*
20,1,$1+$1,$2,$3,$4,$5,0*
20,1,$1+$1,$4,$5,$6,$7,0*
20,1,$1+$1,$6,$7,$8,$9,0*
20,1,$1+$1,$8,$9,$2,$3,0*%
G04 Aperture macros list end*
%ADD10RoundRect,0.250000X-1.025000X-1.000000X1.025000X-1.000000X1.025000X1.000000X-1.025000X1.000000X0*%
%ADD11RoundRect,0.250000X1.025000X1.000000X-1.025000X1.000000X-1.025000X-1.000000X1.025000X-1.000000X0*%
G04 APERTURE END LIST*
D10*
%TO.C,MX22*%
X216435000Y-96520000D03*
X229362000Y-93980000D03*
%TD*%
%TO.C,MX27*%
X92610000Y-115570000D03*
X105537000Y-113030000D03*
%TD*%
%TO.C,MX25*%
X47366300Y-115570000D03*
X60293300Y-113030000D03*
%TD*%
%TO.C,MX41*%
X180725000Y-134620000D03*
X193652000Y-132080000D03*
%TD*%
%TO.C,MX21*%
X197385000Y-96520000D03*
X210312000Y-93980000D03*
%TD*%
%TO.C,MX11*%
X230722500Y-77470000D03*
X243649500Y-74930000D03*
%TD*%
%TO.C,MX14*%
X64035000Y-96520000D03*
X76962000Y-93980000D03*
%TD*%
%TO.C,MX31*%
X168810000Y-115570000D03*
X181737000Y-113030000D03*
%TD*%
%TO.C,MX16*%
X102135000Y-96520000D03*
X115062000Y-93980000D03*
%TD*%
%TO.C,MX10*%
X211672500Y-77470000D03*
X224599500Y-74930000D03*
%TD*%
%TO.C,MX29*%
X130710000Y-115570000D03*
X143637000Y-113030000D03*
%TD*%
%TO.C,MX33*%
X206910000Y-115570000D03*
X219837000Y-113030000D03*
%TD*%
%TO.C,MX39*%
X114041300Y-134620000D03*
X126968300Y-132080000D03*
%TD*%
%TO.C,MX40_1*%
X149775000Y-134620000D03*
X162702000Y-132080000D03*
%TD*%
%TO.C,MX44*%
X249772500Y-134620000D03*
X262699500Y-132080000D03*
%TD*%
%TO.C,MX4*%
X97372500Y-77470000D03*
X110299500Y-74930000D03*
%TD*%
%TO.C,MX24*%
X249772500Y-77470000D03*
X262699500Y-74930000D03*
%TD*%
%TO.C,MX37*%
X59272500Y-134620000D03*
X72199500Y-132080000D03*
%TD*%
%TO.C,MX20*%
X178335000Y-96520000D03*
X191262000Y-93980000D03*
%TD*%
%TO.C,MX7*%
X154522500Y-77470000D03*
X167449500Y-74930000D03*
%TD*%
D11*
%TO.C,MX36*%
X54392500Y-139700000D03*
X41465500Y-142240000D03*
%TD*%
D10*
%TO.C,MX42*%
X211672500Y-134620000D03*
X224599500Y-132080000D03*
%TD*%
%TO.C,MX17*%
X121185000Y-96520000D03*
X134112000Y-93980000D03*
%TD*%
%TO.C,MX30*%
X149760000Y-115570000D03*
X162687000Y-113030000D03*
%TD*%
%TO.C,MX8*%
X173572500Y-77470000D03*
X186499500Y-74930000D03*
%TD*%
%TO.C,MX5*%
X116422500Y-77470000D03*
X129349500Y-74930000D03*
%TD*%
%TO.C,MX34*%
X225960000Y-115570000D03*
X238887000Y-113030000D03*
%TD*%
%TO.C,MX28*%
X111660000Y-115570000D03*
X124587000Y-113030000D03*
%TD*%
%TO.C,MX19*%
X159285000Y-96520000D03*
X172212000Y-93980000D03*
%TD*%
%TO.C,MX15*%
X83085000Y-96520000D03*
X96012000Y-93980000D03*
%TD*%
%TO.C,MX43*%
X230722500Y-134620000D03*
X243649500Y-132080000D03*
%TD*%
%TO.C,MX18*%
X140235000Y-96520000D03*
X153162000Y-93980000D03*
%TD*%
%TO.C,MX23*%
X242628800Y-96520000D03*
X255555800Y-93980000D03*
%TD*%
%TO.C,MX35*%
X247391300Y-115570000D03*
X260318300Y-113030000D03*
%TD*%
%TO.C,MX38*%
X78322500Y-134620000D03*
X91249500Y-132080000D03*
%TD*%
%TO.C,MX9*%
X192622500Y-77470000D03*
X205549500Y-74930000D03*
%TD*%
%TO.C,MX2*%
X59272500Y-77470000D03*
X72199500Y-74930000D03*
%TD*%
D11*
%TO.C,MX1*%
X54392500Y-82550000D03*
X41465500Y-85090000D03*
%TD*%
D10*
%TO.C,MX32*%
X187860000Y-115570000D03*
X200787000Y-113030000D03*
%TD*%
%TO.C,MX13*%
X42603800Y-96520000D03*
X55530800Y-93980000D03*
%TD*%
%TO.C,MX3*%
X78322500Y-77470000D03*
X91249500Y-74930000D03*
%TD*%
%TO.C,MX26*%
X73560000Y-115570000D03*
X86487000Y-113030000D03*
%TD*%
%TO.C,MX6*%
X135472500Y-77470000D03*
X148399500Y-74930000D03*
%TD*%
M02*
