%TF.GenerationSoftware,KiCad,Pcbnew,7.0.2*%
%TF.CreationDate,2023-10-29T18:34:14+01:00*%
%TF.ProjectId,0xcb-static-hs,30786362-2d73-4746-9174-69632d68732e,1.0*%
%TF.SameCoordinates,Original*%
%TF.FileFunction,Soldermask,Bot*%
%TF.FilePolarity,Negative*%
%FSLAX46Y46*%
G04 Gerber Fmt 4.6, Leading zero omitted, Abs format (unit mm)*
G04 Created by KiCad (PCBNEW 7.0.2) date 2023-10-29 18:34:14*
%MOMM*%
%LPD*%
G01*
G04 APERTURE LIST*
G04 Aperture macros list*
%AMRoundRect*
0 Rectangle with rounded corners*
0 $1 Rounding radius*
0 $2 $3 $4 $5 $6 $7 $8 $9 X,Y pos of 4 corners*
0 Add a 4 corners polygon primitive as box body*
4,1,4,$2,$3,$4,$5,$6,$7,$8,$9,$2,$3,0*
0 Add four circle primitives for the rounded corners*
1,1,$1+$1,$2,$3*
1,1,$1+$1,$4,$5*
1,1,$1+$1,$6,$7*
1,1,$1+$1,$8,$9*
0 Add four rect primitives between the rounded corners*
20,1,$1+$1,$2,$3,$4,$5,0*
20,1,$1+$1,$4,$5,$6,$7,0*
20,1,$1+$1,$6,$7,$8,$9,0*
20,1,$1+$1,$8,$9,$2,$3,0*%
G04 Aperture macros list end*
%ADD10R,1.600000X1.600000*%
%ADD11O,1.600000X1.600000*%
%ADD12C,1.750000*%
%ADD13C,3.050000*%
%ADD14C,4.000000*%
%ADD15RoundRect,0.250000X-1.025000X-1.000000X1.025000X-1.000000X1.025000X1.000000X-1.025000X1.000000X0*%
%ADD16C,1.752600*%
%ADD17R,1.700000X1.700000*%
%ADD18O,1.700000X1.700000*%
%ADD19C,1.524000*%
%ADD20RoundRect,0.250000X1.025000X1.000000X-1.025000X1.000000X-1.025000X-1.000000X1.025000X-1.000000X0*%
%ADD21R,1.000000X1.000000*%
%ADD22R,2.000000X2.000000*%
%ADD23C,2.000000*%
%ADD24R,2.000000X3.200000*%
G04 APERTURE END LIST*
D10*
%TO.C,D36*%
X205549500Y-64262000D03*
D11*
X205549500Y-51562000D03*
%TD*%
D12*
%TO.C,MX22*%
X218440000Y-99060000D03*
D13*
X219710000Y-96520000D03*
D14*
X223520000Y-99060000D03*
D13*
X226060000Y-93980000D03*
D12*
X228600000Y-99060000D03*
D15*
X216435000Y-96520000D03*
X229362000Y-93980000D03*
%TD*%
D10*
%TO.C,D47*%
X197929500Y-65532000D03*
D11*
X197929500Y-52832000D03*
%TD*%
D12*
%TO.C,MX27*%
X94615000Y-118110000D03*
D13*
X95885000Y-115570000D03*
D14*
X99695000Y-118110000D03*
D13*
X102235000Y-113030000D03*
D12*
X104775000Y-118110000D03*
D15*
X92610000Y-115570000D03*
X105537000Y-113030000D03*
%TD*%
D10*
%TO.C,D20*%
X162369500Y-61722000D03*
D11*
X162369500Y-49022000D03*
%TD*%
D16*
%TO.C,U1*%
X44126810Y-62825040D03*
X46666810Y-62825040D03*
X49206810Y-62825040D03*
X51746810Y-62825040D03*
X54286810Y-62825040D03*
X56826810Y-62825040D03*
X59366810Y-62825040D03*
X61906810Y-62825040D03*
X64446810Y-62825040D03*
X66986810Y-62825040D03*
X69526810Y-62825040D03*
X72066810Y-62825040D03*
X72066810Y-47585040D03*
X69526810Y-47585040D03*
X66986810Y-47585040D03*
X64446810Y-47585040D03*
X61906810Y-47585040D03*
X59366810Y-47585040D03*
X56826810Y-47585040D03*
X54286810Y-47585040D03*
X51746810Y-47585040D03*
X49206810Y-47585040D03*
X46666810Y-47585040D03*
X44126810Y-47585040D03*
X66986810Y-60285040D03*
X66986810Y-57745040D03*
X66986810Y-55205040D03*
X41586810Y-62825040D03*
X41586810Y-47585040D03*
%TD*%
D12*
%TO.C,MX25*%
X49371300Y-118110000D03*
D13*
X50641300Y-115570000D03*
D14*
X54451300Y-118110000D03*
D13*
X56991300Y-113030000D03*
D12*
X59531300Y-118110000D03*
D15*
X47366300Y-115570000D03*
X60293300Y-113030000D03*
%TD*%
D12*
%TO.C,MX41*%
X182730000Y-137160000D03*
D13*
X184000000Y-134620000D03*
D14*
X187810000Y-137160000D03*
D13*
X190350000Y-132080000D03*
D12*
X192890000Y-137160000D03*
D15*
X180725000Y-134620000D03*
X193652000Y-132080000D03*
%TD*%
D17*
%TO.C,OL1*%
X213110000Y-48980000D03*
D18*
X213110000Y-51520000D03*
X213110000Y-54060000D03*
X213110000Y-56600000D03*
%TD*%
D10*
%TO.C,D10*%
X180149500Y-59182000D03*
D11*
X180149500Y-46482000D03*
%TD*%
D12*
%TO.C,MX21*%
X199390000Y-99060000D03*
D13*
X200660000Y-96520000D03*
D14*
X204470000Y-99060000D03*
D13*
X207010000Y-93980000D03*
D12*
X209550000Y-99060000D03*
D15*
X197385000Y-96520000D03*
X210312000Y-93980000D03*
%TD*%
D19*
%TO.C,REF\u002A\u002A*%
X51938420Y-42480418D03*
X49438420Y-42480418D03*
X54438420Y-42480418D03*
%TD*%
D10*
%TO.C,D14*%
X101409500Y-61722000D03*
D11*
X101409500Y-49022000D03*
%TD*%
D12*
%TO.C,MX11*%
X232727500Y-80010000D03*
D13*
X233997500Y-77470000D03*
D14*
X237807500Y-80010000D03*
D13*
X240347500Y-74930000D03*
D12*
X242887500Y-80010000D03*
D15*
X230722500Y-77470000D03*
X243649500Y-74930000D03*
%TD*%
D12*
%TO.C,MX14*%
X66040000Y-99060000D03*
D13*
X67310000Y-96520000D03*
D14*
X71120000Y-99060000D03*
D13*
X73660000Y-93980000D03*
D12*
X76200000Y-99060000D03*
D15*
X64035000Y-96520000D03*
X76962000Y-93980000D03*
%TD*%
D12*
%TO.C,MX31*%
X170815000Y-118110000D03*
D13*
X172085000Y-115570000D03*
D14*
X175895000Y-118110000D03*
D13*
X178435000Y-113030000D03*
D12*
X180975000Y-118110000D03*
D15*
X168810000Y-115570000D03*
X181737000Y-113030000D03*
%TD*%
D12*
%TO.C,MX16*%
X104140000Y-99060000D03*
D13*
X105410000Y-96520000D03*
D14*
X109220000Y-99060000D03*
D13*
X111760000Y-93980000D03*
D12*
X114300000Y-99060000D03*
D15*
X102135000Y-96520000D03*
X115062000Y-93980000D03*
%TD*%
D10*
%TO.C,D27*%
X114109500Y-62992000D03*
D11*
X114109500Y-50292000D03*
%TD*%
D10*
%TO.C,D28*%
X124269500Y-64516000D03*
D11*
X124269500Y-51816000D03*
%TD*%
D12*
%TO.C,MX10*%
X213677500Y-80010000D03*
D13*
X214947500Y-77470000D03*
D14*
X218757500Y-80010000D03*
D13*
X221297500Y-74930000D03*
D12*
X223837500Y-80010000D03*
D15*
X211672500Y-77470000D03*
X224599500Y-74930000D03*
%TD*%
D12*
%TO.C,MX29*%
X132715000Y-118110000D03*
D13*
X133985000Y-115570000D03*
D14*
X137795000Y-118110000D03*
D13*
X140335000Y-113030000D03*
D12*
X142875000Y-118110000D03*
D15*
X130710000Y-115570000D03*
X143637000Y-113030000D03*
%TD*%
D12*
%TO.C,MX33*%
X208915000Y-118110000D03*
D13*
X210185000Y-115570000D03*
D14*
X213995000Y-118110000D03*
D13*
X216535000Y-113030000D03*
D12*
X219075000Y-118110000D03*
D15*
X206910000Y-115570000D03*
X219837000Y-113030000D03*
%TD*%
D10*
%TO.C,D17*%
X131889500Y-60452000D03*
D11*
X131889500Y-47752000D03*
%TD*%
D10*
%TO.C,D40*%
X126809500Y-66802000D03*
D11*
X126809500Y-54102000D03*
%TD*%
D10*
%TO.C,D32*%
X164909500Y-64262000D03*
D11*
X164909500Y-51562000D03*
%TD*%
D12*
%TO.C,MX39*%
X116046300Y-137160000D03*
D13*
X117316300Y-134620000D03*
D14*
X121126300Y-137160000D03*
D13*
X123666300Y-132080000D03*
D12*
X126206300Y-137160000D03*
D15*
X114041300Y-134620000D03*
X126968300Y-132080000D03*
%TD*%
D10*
%TO.C,D48*%
X208089500Y-66802000D03*
D11*
X208089500Y-54102000D03*
%TD*%
D12*
%TO.C,MX40_1*%
X151780000Y-137160000D03*
D13*
X153050000Y-134620000D03*
D14*
X156860000Y-137160000D03*
D13*
X159400000Y-132080000D03*
D12*
X161940000Y-137160000D03*
D15*
X149775000Y-134620000D03*
X162702000Y-132080000D03*
%TD*%
D10*
%TO.C,D19*%
X152209500Y-60452000D03*
D11*
X152209500Y-47752000D03*
%TD*%
D10*
%TO.C,D35*%
X195389500Y-62992000D03*
D11*
X195389500Y-50292000D03*
%TD*%
D10*
%TO.C,D45*%
X177609500Y-65532000D03*
D11*
X177609500Y-52832000D03*
%TD*%
D10*
%TO.C,D4*%
X119189500Y-59182000D03*
D11*
X119189500Y-46482000D03*
%TD*%
D10*
%TO.C,D22*%
X182689500Y-61722000D03*
D11*
X182689500Y-49022000D03*
%TD*%
D10*
%TO.C,D25*%
X93789500Y-62992000D03*
D11*
X93789500Y-50292000D03*
%TD*%
D12*
%TO.C,MX44*%
X251777500Y-137160000D03*
D13*
X253047500Y-134620000D03*
D14*
X256857500Y-137160000D03*
D13*
X259397500Y-132080000D03*
D12*
X261937500Y-137160000D03*
D15*
X249772500Y-134620000D03*
X262699500Y-132080000D03*
%TD*%
D12*
%TO.C,MX4*%
X99377500Y-80010000D03*
D13*
X100647500Y-77470000D03*
D14*
X104457500Y-80010000D03*
D13*
X106997500Y-74930000D03*
D12*
X109537500Y-80010000D03*
D15*
X97372500Y-77470000D03*
X110299500Y-74930000D03*
%TD*%
D10*
%TO.C,D24*%
X203009500Y-61722000D03*
D11*
X203009500Y-49022000D03*
%TD*%
D12*
%TO.C,MX24*%
X251777500Y-80010000D03*
D13*
X253047500Y-77470000D03*
D14*
X256857500Y-80010000D03*
D13*
X259397500Y-74930000D03*
D12*
X261937500Y-80010000D03*
D15*
X249772500Y-77470000D03*
X262699500Y-74930000D03*
%TD*%
D12*
%TO.C,MX37*%
X61277500Y-137160000D03*
D13*
X62547500Y-134620000D03*
D14*
X66357500Y-137160000D03*
D13*
X68897500Y-132080000D03*
D12*
X71437500Y-137160000D03*
D15*
X59272500Y-134620000D03*
X72199500Y-132080000D03*
%TD*%
D12*
%TO.C,MX20*%
X180340000Y-99060000D03*
D13*
X181610000Y-96520000D03*
D14*
X185420000Y-99060000D03*
D13*
X187960000Y-93980000D03*
D12*
X190500000Y-99060000D03*
D15*
X178335000Y-96520000D03*
X191262000Y-93980000D03*
%TD*%
D10*
%TO.C,D9*%
X169989500Y-57912000D03*
D11*
X169989500Y-45212000D03*
%TD*%
D12*
%TO.C,MX7*%
X156527500Y-80010000D03*
D13*
X157797500Y-77470000D03*
D14*
X161607500Y-80010000D03*
D13*
X164147500Y-74930000D03*
D12*
X166687500Y-80010000D03*
D15*
X154522500Y-77470000D03*
X167449500Y-74930000D03*
%TD*%
D12*
%TO.C,MX36*%
X52387500Y-137160000D03*
D13*
X51117500Y-139700000D03*
D14*
X47307500Y-137160000D03*
D13*
X44767500Y-142240000D03*
D12*
X42227500Y-137160000D03*
D20*
X54392500Y-139700000D03*
X41465500Y-142240000D03*
%TD*%
D10*
%TO.C,D39*%
X116649500Y-65532000D03*
D11*
X116649500Y-52832000D03*
%TD*%
D10*
%TO.C,D13*%
X91249500Y-60452000D03*
D11*
X91249500Y-47752000D03*
%TD*%
D12*
%TO.C,MX42*%
X213677500Y-137160000D03*
D13*
X214947500Y-134620000D03*
D14*
X218757500Y-137160000D03*
D13*
X221297500Y-132080000D03*
D12*
X223837500Y-137160000D03*
D15*
X211672500Y-134620000D03*
X224599500Y-132080000D03*
%TD*%
D10*
%TO.C,D12*%
X200469500Y-59182000D03*
D11*
X200469500Y-46482000D03*
%TD*%
D10*
%TO.C,D7*%
X149669500Y-57912000D03*
D11*
X149669500Y-45212000D03*
%TD*%
D12*
%TO.C,MX17*%
X123190000Y-99060000D03*
D13*
X124460000Y-96520000D03*
D14*
X128270000Y-99060000D03*
D13*
X130810000Y-93980000D03*
D12*
X133350000Y-99060000D03*
D15*
X121185000Y-96520000D03*
X134112000Y-93980000D03*
%TD*%
D12*
%TO.C,MX30*%
X151765000Y-118110000D03*
D13*
X153035000Y-115570000D03*
D14*
X156845000Y-118110000D03*
D13*
X159385000Y-113030000D03*
D12*
X161925000Y-118110000D03*
D15*
X149760000Y-115570000D03*
X162687000Y-113030000D03*
%TD*%
D10*
%TO.C,D3*%
X109029500Y-57912000D03*
D11*
X109029500Y-45212000D03*
%TD*%
D10*
%TO.C,D5*%
X129349500Y-57912000D03*
D11*
X129349500Y-45212000D03*
%TD*%
D12*
%TO.C,MX8*%
X175577500Y-80010000D03*
D13*
X176847500Y-77470000D03*
D14*
X180657500Y-80010000D03*
D13*
X183197500Y-74930000D03*
D12*
X185737500Y-80010000D03*
D15*
X173572500Y-77470000D03*
X186499500Y-74930000D03*
%TD*%
D12*
%TO.C,MX5*%
X118427500Y-80010000D03*
D13*
X119697500Y-77470000D03*
D14*
X123507500Y-80010000D03*
D13*
X126047500Y-74930000D03*
D12*
X128587500Y-80010000D03*
D15*
X116422500Y-77470000D03*
X129349500Y-74930000D03*
%TD*%
D12*
%TO.C,MX34*%
X227965000Y-118110000D03*
D13*
X229235000Y-115570000D03*
D14*
X233045000Y-118110000D03*
D13*
X235585000Y-113030000D03*
D12*
X238125000Y-118110000D03*
D15*
X225960000Y-115570000D03*
X238887000Y-113030000D03*
%TD*%
D21*
%TO.C,B+*%
X46060848Y-44862345D03*
%TD*%
D10*
%TO.C,D8*%
X159829500Y-59182000D03*
D11*
X159829500Y-46482000D03*
%TD*%
D12*
%TO.C,MX28*%
X113665000Y-118110000D03*
D13*
X114935000Y-115570000D03*
D14*
X118745000Y-118110000D03*
D13*
X121285000Y-113030000D03*
D12*
X123825000Y-118110000D03*
D15*
X111660000Y-115570000D03*
X124587000Y-113030000D03*
%TD*%
D12*
%TO.C,MX19*%
X161290000Y-99060000D03*
D13*
X162560000Y-96520000D03*
D14*
X166370000Y-99060000D03*
D13*
X168910000Y-93980000D03*
D12*
X171450000Y-99060000D03*
D15*
X159285000Y-96520000D03*
X172212000Y-93980000D03*
%TD*%
D10*
%TO.C,D16*%
X121729500Y-61722000D03*
D11*
X121729500Y-49022000D03*
%TD*%
D12*
%TO.C,MX15*%
X85090000Y-99060000D03*
D13*
X86360000Y-96520000D03*
D14*
X90170000Y-99060000D03*
D13*
X92710000Y-93980000D03*
D12*
X95250000Y-99060000D03*
D15*
X83085000Y-96520000D03*
X96012000Y-93980000D03*
%TD*%
D10*
%TO.C,D6*%
X139509500Y-59182000D03*
D11*
X139509500Y-46482000D03*
%TD*%
D10*
%TO.C,D15*%
X111569500Y-60452000D03*
D11*
X111569500Y-47752000D03*
%TD*%
D12*
%TO.C,MX43*%
X232727500Y-137160000D03*
D13*
X233997500Y-134620000D03*
D14*
X237807500Y-137160000D03*
D13*
X240347500Y-132080000D03*
D12*
X242887500Y-137160000D03*
D15*
X230722500Y-134620000D03*
X243649500Y-132080000D03*
%TD*%
D10*
%TO.C,D23*%
X192849500Y-60452000D03*
D11*
X192849500Y-47752000D03*
%TD*%
D12*
%TO.C,MX18*%
X142240000Y-99060000D03*
D13*
X143510000Y-96520000D03*
D14*
X147320000Y-99060000D03*
D13*
X149860000Y-93980000D03*
D12*
X152400000Y-99060000D03*
D15*
X140235000Y-96520000D03*
X153162000Y-93980000D03*
%TD*%
D10*
%TO.C,D31*%
X154749500Y-62992000D03*
D11*
X154749500Y-50292000D03*
%TD*%
D12*
%TO.C,MX23*%
X244633800Y-99060000D03*
D13*
X245903800Y-96520000D03*
D14*
X249713800Y-99060000D03*
D13*
X252253800Y-93980000D03*
D12*
X254793800Y-99060000D03*
D15*
X242628800Y-96520000D03*
X255555800Y-93980000D03*
%TD*%
D10*
%TO.C,D29*%
X134429500Y-62992000D03*
D11*
X134429500Y-50292000D03*
%TD*%
D10*
%TO.C,D1*%
X88709500Y-57912000D03*
D11*
X88709500Y-45212000D03*
%TD*%
D10*
%TO.C,D18*%
X142049500Y-61722000D03*
D11*
X142049500Y-49022000D03*
%TD*%
D10*
%TO.C,D46*%
X187769500Y-66802000D03*
D11*
X187769500Y-54102000D03*
%TD*%
D12*
%TO.C,MX35*%
X249396300Y-118110000D03*
D13*
X250666300Y-115570000D03*
D14*
X254476300Y-118110000D03*
D13*
X257016300Y-113030000D03*
D12*
X259556300Y-118110000D03*
D15*
X247391300Y-115570000D03*
X260318300Y-113030000D03*
%TD*%
D10*
%TO.C,D38*%
X106489500Y-66802000D03*
D11*
X106489500Y-54102000D03*
%TD*%
D12*
%TO.C,MX38*%
X80327500Y-137160000D03*
D13*
X81597500Y-134620000D03*
D14*
X85407500Y-137160000D03*
D13*
X87947500Y-132080000D03*
D12*
X90487500Y-137160000D03*
D15*
X78322500Y-134620000D03*
X91249500Y-132080000D03*
%TD*%
D12*
%TO.C,MX9*%
X194627500Y-80010000D03*
D13*
X195897500Y-77470000D03*
D14*
X199707500Y-80010000D03*
D13*
X202247500Y-74930000D03*
D12*
X204787500Y-80010000D03*
D15*
X192622500Y-77470000D03*
X205549500Y-74930000D03*
%TD*%
D12*
%TO.C,MX2*%
X61277500Y-80010000D03*
D13*
X62547500Y-77470000D03*
D14*
X66357500Y-80010000D03*
D13*
X68897500Y-74930000D03*
D12*
X71437500Y-80010000D03*
D15*
X59272500Y-77470000D03*
X72199500Y-74930000D03*
%TD*%
D12*
%TO.C,MX1*%
X52387500Y-80010000D03*
D13*
X51117500Y-82550000D03*
D14*
X47307500Y-80010000D03*
D13*
X44767500Y-85090000D03*
D12*
X42227500Y-80010000D03*
D20*
X54392500Y-82550000D03*
X41465500Y-85090000D03*
%TD*%
D10*
%TO.C,D30*%
X144589500Y-64262000D03*
D11*
X144589500Y-51562000D03*
%TD*%
D10*
%TO.C,D21*%
X172529500Y-60452000D03*
D11*
X172529500Y-47752000D03*
%TD*%
D10*
%TO.C,D2*%
X98869500Y-59182000D03*
D11*
X98869500Y-46482000D03*
%TD*%
D21*
%TO.C,B-*%
X43649267Y-44862345D03*
%TD*%
D10*
%TO.C,D34*%
X185229500Y-64262000D03*
D11*
X185229500Y-51562000D03*
%TD*%
D10*
%TO.C,D33*%
X175069500Y-62992000D03*
D11*
X175069500Y-50292000D03*
%TD*%
D12*
%TO.C,MX32*%
X189865000Y-118110000D03*
D13*
X191135000Y-115570000D03*
D14*
X194945000Y-118110000D03*
D13*
X197485000Y-113030000D03*
D12*
X200025000Y-118110000D03*
D15*
X187860000Y-115570000D03*
X200787000Y-113030000D03*
%TD*%
D12*
%TO.C,MX13*%
X44608800Y-99060000D03*
D13*
X45878800Y-96520000D03*
D14*
X49688800Y-99060000D03*
D13*
X52228800Y-93980000D03*
D12*
X54768800Y-99060000D03*
D15*
X42603800Y-96520000D03*
X55530800Y-93980000D03*
%TD*%
D22*
%TO.C,MX12*%
X259357500Y-45582000D03*
D23*
X254357500Y-45582000D03*
X256857500Y-45582000D03*
D24*
X262457500Y-53082000D03*
X251257500Y-53082000D03*
D23*
X254357500Y-60082000D03*
X259357500Y-60082000D03*
%TD*%
D10*
%TO.C,D42*%
X147129500Y-66802000D03*
D11*
X147129500Y-54102000D03*
%TD*%
D12*
%TO.C,MX3*%
X80327500Y-80010000D03*
D13*
X81597500Y-77470000D03*
D14*
X85407500Y-80010000D03*
D13*
X87947500Y-74930000D03*
D12*
X90487500Y-80010000D03*
D15*
X78322500Y-77470000D03*
X91249500Y-74930000D03*
%TD*%
D10*
%TO.C,D11*%
X190309500Y-57912000D03*
D11*
X190309500Y-45212000D03*
%TD*%
D10*
%TO.C,D37*%
X96329500Y-65532000D03*
D11*
X96329500Y-52832000D03*
%TD*%
D12*
%TO.C,MX26*%
X75565000Y-118110000D03*
D13*
X76835000Y-115570000D03*
D14*
X80645000Y-118110000D03*
D13*
X83185000Y-113030000D03*
D12*
X85725000Y-118110000D03*
D15*
X73560000Y-115570000D03*
X86487000Y-113030000D03*
%TD*%
D12*
%TO.C,MX6*%
X137477500Y-80010000D03*
D13*
X138747500Y-77470000D03*
D14*
X142557500Y-80010000D03*
D13*
X145097500Y-74930000D03*
D12*
X147637500Y-80010000D03*
D15*
X135472500Y-77470000D03*
X148399500Y-74930000D03*
%TD*%
M02*
